mtllib materialWeightingTestMesh.mtl

#
# object Box001
#

v  -23.3761 0.0000 27.7949
v  -23.3761 0.0000 -14.1963
v  26.0644 0.0000 -14.1963
v  26.0644 0.0000 27.7949
v  -23.3761 33.6615 27.7949
v  26.0644 33.6615 27.7949
v  26.0644 33.6615 -14.1963
v  -23.3761 33.6615 -14.1963
# 8 vertices

vn 0.0000 -1.0000 -0.0000
vn 0.0000 1.0000 -0.0000
vn 0.0000 0.0000 1.0000
vn 1.0000 0.0000 -0.0000
vn 0.0000 0.0000 -1.0000
vn -1.0000 0.0000 -0.0000
# 6 vertex normals

vt 1.0000 0.0000 0.0000
vt 1.0000 1.0000 0.0000
vt 0.0000 1.0000 0.0000
vt 0.0000 0.0000 0.0000
# 4 texture coords

g Box001
usemtl Blue
f 1/1/1 2/2/1 3/3/1 
f 3/3/1 4/4/1 1/1/1 
f 5/4/2 6/1/2 7/2/2 
f 7/2/2 8/3/2 5/4/2 
f 1/4/3 4/1/3 6/2/3 
f 6/2/3 5/3/3 1/4/3 
f 4/4/4 3/1/4 7/2/4 
f 7/2/4 6/3/4 4/4/4 
f 3/4/5 2/1/5 8/2/5 
f 8/2/5 7/3/5 3/4/5 
f 2/4/6 1/1/6 5/2/6 
f 5/2/6 8/3/6 2/4/6 
# 12 faces

#
# object Plane001
#

v  -6.9107 0.0000 43.7422
v  -6.9107 0.0000 48.8691
v  1.3671 0.0000 43.7422
v  1.3671 0.0000 48.8691
v  9.6449 0.0000 43.7422
v  9.6449 0.0000 48.8691
v  17.9227 0.0000 43.7422
v  17.9227 0.0000 48.8691
v  26.2004 0.0000 43.7422
v  26.2004 0.0000 48.8691
v  -6.9107 0.0000 38.6153
v  1.3671 0.0000 38.6153
v  9.6449 0.0000 38.6153
v  17.9227 0.0000 38.6153
v  26.2004 0.0000 38.6153
v  -6.9107 0.0000 33.4884
v  1.3671 0.0000 33.4884
v  9.6449 0.0000 33.4884
v  17.9227 0.0000 33.4884
v  26.2004 0.0000 33.4884
v  -6.9107 0.0000 28.3615
v  1.3671 0.0000 28.3615
v  9.6449 0.0000 28.3615
v  17.9227 0.0000 28.3615
v  26.2004 0.0000 28.3615
# 25 vertices

vn 0.0000 1.0000 -0.0000
# 1 vertex normals

vt 0.0000 0.2500 0.0000
vt 0.0000 0.0000 0.0000
vt 0.2500 0.2500 0.0000
vt 0.2500 0.0000 0.0000
vt 0.5000 0.2500 0.0000
vt 0.5000 0.0000 0.0000
vt 0.7500 0.2500 0.0000
vt 0.7500 0.0000 0.0000
vt 1.0000 0.2500 0.0000
vt 1.0000 0.0000 0.0000
vt 0.0000 0.5000 0.0000
vt 0.2500 0.5000 0.0000
vt 0.5000 0.5000 0.0000
vt 0.7500 0.5000 0.0000
vt 1.0000 0.5000 0.0000
vt 0.0000 0.7500 0.0000
vt 0.2500 0.7500 0.0000
vt 0.5000 0.7500 0.0000
vt 0.7500 0.7500 0.0000
vt 1.0000 0.7500 0.0000
vt 0.0000 1.0000 0.0000
vt 0.2500 1.0000 0.0000
vt 0.5000 1.0000 0.0000
vt 0.7500 1.0000 0.0000
vt 1.0000 1.0000 0.0000
# 25 texture coords

g Plane001
usemtl Yellow
f 9/5/7 10/6/7 11/7/7 
f 12/8/7 11/7/7 10/6/7 
f 11/7/7 12/8/7 13/9/7 
f 14/10/7 13/9/7 12/8/7 
f 13/9/7 14/10/7 15/11/7 
f 16/12/7 15/11/7 14/10/7 
f 15/11/7 16/12/7 17/13/7 
f 18/14/7 17/13/7 16/12/7 
f 19/15/7 9/5/7 20/16/7 
f 11/7/7 20/16/7 9/5/7 
f 20/16/7 11/7/7 21/17/7 
f 13/9/7 21/17/7 11/7/7 
f 21/17/7 13/9/7 22/18/7 
f 15/11/7 22/18/7 13/9/7 
f 22/18/7 15/11/7 23/19/7 
f 17/13/7 23/19/7 15/11/7 
f 24/20/7 19/15/7 25/21/7 
f 20/16/7 25/21/7 19/15/7 
f 25/21/7 20/16/7 26/22/7 
f 21/17/7 26/22/7 20/16/7 
f 26/22/7 21/17/7 27/23/7 
f 22/18/7 27/23/7 21/17/7 
f 27/23/7 22/18/7 28/24/7 
f 23/19/7 28/24/7 22/18/7 
f 29/25/7 24/20/7 30/26/7 
f 25/21/7 30/26/7 24/20/7 
f 30/26/7 25/21/7 31/27/7 
f 26/22/7 31/27/7 25/21/7 
f 31/27/7 26/22/7 32/28/7 
f 27/23/7 32/28/7 26/22/7 
f 32/28/7 27/23/7 33/29/7 
f 28/24/7 33/29/7 27/23/7 
# 32 faces

#
# object Plane002
#

v  -41.0926 15.4394 0.0000
v  -41.0926 12.5891 -0.0000
v  -39.0736 15.4394 0.0000
v  -39.0736 12.5891 -0.0000
v  -37.0546 15.4394 0.0000
v  -37.0546 12.5891 -0.0000
v  -35.0356 15.4394 0.0000
v  -35.0356 12.5891 -0.0000
v  -33.0166 15.4394 0.0000
v  -33.0166 12.5891 -0.0000
v  -41.0926 18.2898 0.0000
v  -39.0736 18.2898 0.0000
v  -37.0546 18.2898 0.0000
v  -35.0356 18.2898 0.0000
v  -33.0166 18.2898 0.0000
v  -41.0926 21.1401 0.0000
v  -39.0736 21.1401 0.0000
v  -37.0546 21.1401 0.0000
v  -35.0356 21.1401 0.0000
v  -33.0166 21.1401 0.0000
v  -41.0926 23.9905 0.0000
v  -39.0736 23.9905 0.0000
v  -37.0546 23.9905 0.0000
v  -35.0356 23.9905 0.0000
v  -33.0166 23.9905 0.0000
# 25 vertices

vn 0.0000 -0.0000 1.0000
# 1 vertex normals

vt 0.0000 0.2500 0.0000
vt 0.0000 0.0000 0.0000
vt 0.2500 0.2500 0.0000
vt 0.2500 0.0000 0.0000
vt 0.5000 0.2500 0.0000
vt 0.5000 0.0000 0.0000
vt 0.7500 0.2500 0.0000
vt 0.7500 0.0000 0.0000
vt 1.0000 0.2500 0.0000
vt 1.0000 0.0000 0.0000
vt 0.0000 0.5000 0.0000
vt 0.2500 0.5000 0.0000
vt 0.5000 0.5000 0.0000
vt 0.7500 0.5000 0.0000
vt 1.0000 0.5000 0.0000
vt 0.0000 0.7500 0.0000
vt 0.2500 0.7500 0.0000
vt 0.5000 0.7500 0.0000
vt 0.7500 0.7500 0.0000
vt 1.0000 0.7500 0.0000
vt 0.0000 1.0000 0.0000
vt 0.2500 1.0000 0.0000
vt 0.5000 1.0000 0.0000
vt 0.7500 1.0000 0.0000
vt 1.0000 1.0000 0.0000
# 25 texture coords

g Plane002
usemtl Blue
f 34/30/8 35/31/8 36/32/8 
f 37/33/8 36/32/8 35/31/8 
f 36/32/8 37/33/8 38/34/8 
f 39/35/8 38/34/8 37/33/8 
f 38/34/8 39/35/8 40/36/8 
f 41/37/8 40/36/8 39/35/8 
f 40/36/8 41/37/8 42/38/8 
f 43/39/8 42/38/8 41/37/8 
f 44/40/8 34/30/8 45/41/8 
f 36/32/8 45/41/8 34/30/8 
f 45/41/8 36/32/8 46/42/8 
f 38/34/8 46/42/8 36/32/8 
f 46/42/8 38/34/8 47/43/8 
f 40/36/8 47/43/8 38/34/8 
f 47/43/8 40/36/8 48/44/8 
f 42/38/8 48/44/8 40/36/8 
f 49/45/8 44/40/8 50/46/8 
f 45/41/8 50/46/8 44/40/8 
f 50/46/8 45/41/8 51/47/8 
f 46/42/8 51/47/8 45/41/8 
f 51/47/8 46/42/8 52/48/8 
f 47/43/8 52/48/8 46/42/8 
f 52/48/8 47/43/8 53/49/8 
f 48/44/8 53/49/8 47/43/8 
f 54/50/8 49/45/8 55/51/8 
f 50/46/8 55/51/8 49/45/8 
f 55/51/8 50/46/8 56/52/8 
f 51/47/8 56/52/8 50/46/8 
f 56/52/8 51/47/8 57/53/8 
f 52/48/8 57/53/8 51/47/8 
f 57/53/8 52/48/8 58/54/8 
f 53/49/8 58/54/8 52/48/8 
# 32 faces

#
# object Plane003
#

v  -52.9691 11.9952 0.0000
v  -52.9691 8.7886 -0.0000
v  -50.9501 11.9952 0.0000
v  -50.9501 8.7886 -0.0000
v  -48.9311 11.9952 0.0000
v  -48.9311 8.7886 -0.0000
v  -46.9121 11.9952 0.0000
v  -46.9121 8.7886 -0.0000
v  -44.8931 11.9952 0.0000
v  -44.8931 8.7886 -0.0000
v  -52.9691 15.2019 0.0000
v  -50.9501 15.2019 0.0000
v  -48.9311 15.2019 0.0000
v  -46.9121 15.2019 0.0000
v  -44.8931 15.2019 0.0000
v  -52.9691 18.4086 0.0000
v  -50.9501 18.4086 0.0000
v  -48.9311 18.4086 0.0000
v  -46.9121 18.4086 0.0000
v  -44.8931 18.4086 0.0000
v  -52.9691 21.6152 0.0000
v  -50.9501 21.6152 0.0000
v  -48.9311 21.6152 0.0000
v  -46.9121 21.6152 0.0000
v  -44.8931 21.6152 0.0000
# 25 vertices

vn 0.0000 -0.0000 1.0000
# 1 vertex normals

vt 0.0000 0.2500 0.0000
vt 0.0000 0.0000 0.0000
vt 0.2500 0.2500 0.0000
vt 0.2500 0.0000 0.0000
vt 0.5000 0.2500 0.0000
vt 0.5000 0.0000 0.0000
vt 0.7500 0.2500 0.0000
vt 0.7500 0.0000 0.0000
vt 1.0000 0.2500 0.0000
vt 1.0000 0.0000 0.0000
vt 0.0000 0.5000 0.0000
vt 0.2500 0.5000 0.0000
vt 0.5000 0.5000 0.0000
vt 0.7500 0.5000 0.0000
vt 1.0000 0.5000 0.0000
vt 0.0000 0.7500 0.0000
vt 0.2500 0.7500 0.0000
vt 0.5000 0.7500 0.0000
vt 0.7500 0.7500 0.0000
vt 1.0000 0.7500 0.0000
vt 0.0000 1.0000 0.0000
vt 0.2500 1.0000 0.0000
vt 0.5000 1.0000 0.0000
vt 0.7500 1.0000 0.0000
vt 1.0000 1.0000 0.0000
# 25 texture coords

g Plane003
usemtl Red
f 59/55/9 60/56/9 61/57/9 
f 62/58/9 61/57/9 60/56/9 
f 61/57/9 62/58/9 63/59/9 
f 64/60/9 63/59/9 62/58/9 
f 63/59/9 64/60/9 65/61/9 
f 66/62/9 65/61/9 64/60/9 
f 65/61/9 66/62/9 67/63/9 
f 68/64/9 67/63/9 66/62/9 
f 69/65/9 59/55/9 70/66/9 
f 61/57/9 70/66/9 59/55/9 
f 70/66/9 61/57/9 71/67/9 
f 63/59/9 71/67/9 61/57/9 
f 71/67/9 63/59/9 72/68/9 
f 65/61/9 72/68/9 63/59/9 
f 72/68/9 65/61/9 73/69/9 
f 67/63/9 73/69/9 65/61/9 
f 74/70/9 69/65/9 75/71/9 
f 70/66/9 75/71/9 69/65/9 
f 75/71/9 70/66/9 76/72/9 
f 71/67/9 76/72/9 70/66/9 
f 76/72/9 71/67/9 77/73/9 
f 72/68/9 77/73/9 71/67/9 
f 77/73/9 72/68/9 78/74/9 
f 73/69/9 78/74/9 72/68/9 
f 79/75/9 74/70/9 80/76/9 
f 75/71/9 80/76/9 74/70/9 
f 80/76/9 75/71/9 81/77/9 
f 76/72/9 81/77/9 75/71/9 
f 81/77/9 76/72/9 82/78/9 
f 77/73/9 82/78/9 76/72/9 
f 82/78/9 77/73/9 83/79/9 
f 78/74/9 83/79/9 77/73/9 
# 32 faces

#
# object Plane004
#

v  -38.7173 -5.4632 -0.0000
v  -38.7173 -8.3135 -0.0000
v  -36.8171 -5.4632 -0.0000
v  -36.8171 -8.3135 -0.0000
v  -34.9169 -5.4632 -0.0000
v  -34.9169 -8.3135 -0.0000
v  -33.0166 -5.4632 -0.0000
v  -33.0166 -8.3135 -0.0000
v  -31.1164 -5.4632 -0.0000
v  -31.1164 -8.3135 -0.0000
v  -38.7173 -2.6128 -0.0000
v  -36.8171 -2.6128 -0.0000
v  -34.9169 -2.6128 -0.0000
v  -33.0166 -2.6128 -0.0000
v  -31.1164 -2.6128 -0.0000
v  -38.7173 0.2375 0.0000
v  -36.8171 0.2375 0.0000
v  -34.9169 0.2375 0.0000
v  -33.0166 0.2375 0.0000
v  -31.1164 0.2375 0.0000
v  -38.7173 3.0879 0.0000
v  -36.8171 3.0879 0.0000
v  -34.9169 3.0879 0.0000
v  -33.0166 3.0879 0.0000
v  -31.1164 3.0879 0.0000
# 25 vertices

vn 0.0000 -0.0000 1.0000
# 1 vertex normals

vt 0.0000 0.2500 0.0000
vt 0.0000 0.0000 0.0000
vt 0.2500 0.2500 0.0000
vt 0.2500 0.0000 0.0000
vt 0.5000 0.2500 0.0000
vt 0.5000 0.0000 0.0000
vt 0.7500 0.2500 0.0000
vt 0.7500 0.0000 0.0000
vt 1.0000 0.2500 0.0000
vt 1.0000 0.0000 0.0000
vt 0.0000 0.5000 0.0000
vt 0.2500 0.5000 0.0000
vt 0.5000 0.5000 0.0000
vt 0.7500 0.5000 0.0000
vt 1.0000 0.5000 0.0000
vt 0.0000 0.7500 0.0000
vt 0.2500 0.7500 0.0000
vt 0.5000 0.7500 0.0000
vt 0.7500 0.7500 0.0000
vt 1.0000 0.7500 0.0000
vt 0.0000 1.0000 0.0000
vt 0.2500 1.0000 0.0000
vt 0.5000 1.0000 0.0000
vt 0.7500 1.0000 0.0000
vt 1.0000 1.0000 0.0000
# 25 texture coords

g Plane004
usemtl Yellow
f 84/80/10 85/81/10 86/82/10 
f 87/83/10 86/82/10 85/81/10 
f 86/82/10 87/83/10 88/84/10 
f 89/85/10 88/84/10 87/83/10 
f 88/84/10 89/85/10 90/86/10 
f 91/87/10 90/86/10 89/85/10 
f 90/86/10 91/87/10 92/88/10 
f 93/89/10 92/88/10 91/87/10 
f 94/90/10 84/80/10 95/91/10 
f 86/82/10 95/91/10 84/80/10 
f 95/91/10 86/82/10 96/92/10 
f 88/84/10 96/92/10 86/82/10 
f 96/92/10 88/84/10 97/93/10 
f 90/86/10 97/93/10 88/84/10 
f 97/93/10 90/86/10 98/94/10 
f 92/88/10 98/94/10 90/86/10 
f 99/95/10 94/90/10 100/96/10 
f 95/91/10 100/96/10 94/90/10 
f 100/96/10 95/91/10 101/97/10 
f 96/92/10 101/97/10 95/91/10 
f 101/97/10 96/92/10 102/98/10 
f 97/93/10 102/98/10 96/92/10 
f 102/98/10 97/93/10 103/99/10 
f 98/94/10 103/99/10 97/93/10 
f 104/100/10 99/95/10 105/101/10 
f 100/96/10 105/101/10 99/95/10 
f 105/101/10 100/96/10 106/102/10 
f 101/97/10 106/102/10 100/96/10 
f 106/102/10 101/97/10 107/103/10 
f 102/98/10 107/103/10 101/97/10 
f 107/103/10 102/98/10 108/104/10 
f 103/99/10 108/104/10 102/98/10 
# 32 faces

#
# object Plane005
#

v  -55.8195 31.7102 0.0000
v  -55.8195 28.7411 0.0000
v  -53.8005 31.7102 0.0000
v  -53.8005 28.7411 0.0000
v  -51.7815 31.7102 0.0000
v  -51.7815 28.7411 0.0000
v  -49.7625 31.7102 0.0000
v  -49.7625 28.7411 0.0000
v  -47.7435 31.7102 0.0000
v  -47.7435 28.7411 0.0000
v  -55.8195 34.6793 0.0000
v  -53.8005 34.6793 0.0000
v  -51.7815 34.6793 0.0000
v  -49.7625 34.6793 0.0000
v  -47.7435 34.6793 0.0000
v  -55.8195 37.6485 0.0000
v  -53.8005 37.6485 0.0000
v  -51.7815 37.6485 0.0000
v  -49.7625 37.6485 0.0000
v  -47.7435 37.6485 0.0000
v  -55.8195 40.6176 0.0000
v  -53.8005 40.6176 0.0000
v  -51.7815 40.6176 0.0000
v  -49.7625 40.6176 0.0000
v  -47.7435 40.6176 0.0000
# 25 vertices

vn 0.0000 -0.0000 1.0000
# 1 vertex normals

vt 0.0000 0.2500 0.0000
vt 0.0000 0.0000 0.0000
vt 0.2500 0.2500 0.0000
vt 0.2500 0.0000 0.0000
vt 0.5000 0.2500 0.0000
vt 0.5000 0.0000 0.0000
vt 0.7500 0.2500 0.0000
vt 0.7500 0.0000 0.0000
vt 1.0000 0.2500 0.0000
vt 1.0000 0.0000 0.0000
vt 0.0000 0.5000 0.0000
vt 0.2500 0.5000 0.0000
vt 0.5000 0.5000 0.0000
vt 0.7500 0.5000 0.0000
vt 1.0000 0.5000 0.0000
vt 0.0000 0.7500 0.0000
vt 0.2500 0.7500 0.0000
vt 0.5000 0.7500 0.0000
vt 0.7500 0.7500 0.0000
vt 1.0000 0.7500 0.0000
vt 0.0000 1.0000 0.0000
vt 0.2500 1.0000 0.0000
vt 0.5000 1.0000 0.0000
vt 0.7500 1.0000 0.0000
vt 1.0000 1.0000 0.0000
# 25 texture coords

g Plane005
usemtl Yellow
f 109/105/11 110/106/11 111/107/11 
f 112/108/11 111/107/11 110/106/11 
f 111/107/11 112/108/11 113/109/11 
f 114/110/11 113/109/11 112/108/11 
f 113/109/11 114/110/11 115/111/11 
f 116/112/11 115/111/11 114/110/11 
f 115/111/11 116/112/11 117/113/11 
f 118/114/11 117/113/11 116/112/11 
f 119/115/11 109/105/11 120/116/11 
f 111/107/11 120/116/11 109/105/11 
f 120/116/11 111/107/11 121/117/11 
f 113/109/11 121/117/11 111/107/11 
f 121/117/11 113/109/11 122/118/11 
f 115/111/11 122/118/11 113/109/11 
f 122/118/11 115/111/11 123/119/11 
f 117/113/11 123/119/11 115/111/11 
f 124/120/11 119/115/11 125/121/11 
f 120/116/11 125/121/11 119/115/11 
f 125/121/11 120/116/11 126/122/11 
f 121/117/11 126/122/11 120/116/11 
f 126/122/11 121/117/11 127/123/11 
f 122/118/11 127/123/11 121/117/11 
f 127/123/11 122/118/11 128/124/11 
f 123/119/11 128/124/11 122/118/11 
f 129/125/11 124/120/11 130/126/11 
f 125/121/11 130/126/11 124/120/11 
f 130/126/11 125/121/11 131/127/11 
f 126/122/11 131/127/11 125/121/11 
f 131/127/11 126/122/11 132/128/11 
f 127/123/11 132/128/11 126/122/11 
f 132/128/11 127/123/11 133/129/11 
f 128/124/11 133/129/11 127/123/11 
# 32 faces

#
# object Plane006
#

v  -39.6675 37.0546 0.0000
v  -39.6675 33.4917 0.0000
v  -37.7672 37.0546 0.0000
v  -37.7672 33.4917 0.0000
v  -35.8670 37.0546 0.0000
v  -35.8670 33.4917 0.0000
v  -33.9667 37.0546 0.0000
v  -33.9667 33.4917 0.0000
v  -32.0665 37.0546 0.0000
v  -32.0665 33.4917 0.0000
v  -39.6675 40.6176 0.0000
v  -37.7672 40.6176 0.0000
v  -35.8670 40.6176 0.0000
v  -33.9667 40.6176 0.0000
v  -32.0665 40.6176 0.0000
v  -39.6675 44.1805 0.0000
v  -37.7672 44.1805 0.0000
v  -35.8670 44.1805 0.0000
v  -33.9667 44.1805 0.0000
v  -32.0665 44.1805 0.0000
v  -39.6675 47.7435 0.0000
v  -37.7672 47.7435 0.0000
v  -35.8670 47.7435 0.0000
v  -33.9667 47.7435 0.0000
v  -32.0665 47.7435 0.0000
# 25 vertices

vn 0.0000 -0.0000 1.0000
# 1 vertex normals

vt 0.0000 0.2500 0.0000
vt 0.0000 0.0000 0.0000
vt 0.2500 0.2500 0.0000
vt 0.2500 0.0000 0.0000
vt 0.5000 0.2500 0.0000
vt 0.5000 0.0000 0.0000
vt 0.7500 0.2500 0.0000
vt 0.7500 0.0000 0.0000
vt 1.0000 0.2500 0.0000
vt 1.0000 0.0000 0.0000
vt 0.0000 0.5000 0.0000
vt 0.2500 0.5000 0.0000
vt 0.5000 0.5000 0.0000
vt 0.7500 0.5000 0.0000
vt 1.0000 0.5000 0.0000
vt 0.0000 0.7500 0.0000
vt 0.2500 0.7500 0.0000
vt 0.5000 0.7500 0.0000
vt 0.7500 0.7500 0.0000
vt 1.0000 0.7500 0.0000
vt 0.0000 1.0000 0.0000
vt 0.2500 1.0000 0.0000
vt 0.5000 1.0000 0.0000
vt 0.7500 1.0000 0.0000
vt 1.0000 1.0000 0.0000
# 25 texture coords

g Plane006
usemtl Blue
f 134/130/12 135/131/12 136/132/12 
f 137/133/12 136/132/12 135/131/12 
f 136/132/12 137/133/12 138/134/12 
f 139/135/12 138/134/12 137/133/12 
f 138/134/12 139/135/12 140/136/12 
f 141/137/12 140/136/12 139/135/12 
f 140/136/12 141/137/12 142/138/12 
f 143/139/12 142/138/12 141/137/12 
f 144/140/12 134/130/12 145/141/12 
f 136/132/12 145/141/12 134/130/12 
f 145/141/12 136/132/12 146/142/12 
f 138/134/12 146/142/12 136/132/12 
f 146/142/12 138/134/12 147/143/12 
f 140/136/12 147/143/12 138/134/12 
f 147/143/12 140/136/12 148/144/12 
f 142/138/12 148/144/12 140/136/12 
f 149/145/12 144/140/12 150/146/12 
f 145/141/12 150/146/12 144/140/12 
f 150/146/12 145/141/12 151/147/12 
f 146/142/12 151/147/12 145/141/12 
f 151/147/12 146/142/12 152/148/12 
f 147/143/12 152/148/12 146/142/12 
f 152/148/12 147/143/12 153/149/12 
f 148/144/12 153/149/12 147/143/12 
f 154/150/12 149/145/12 155/151/12 
f 150/146/12 155/151/12 149/145/12 
f 155/151/12 150/146/12 156/152/12 
f 151/147/12 156/152/12 150/146/12 
f 156/152/12 151/147/12 157/153/12 
f 152/148/12 157/153/12 151/147/12 
f 157/153/12 152/148/12 158/154/12 
f 153/149/12 158/154/12 152/148/12 
# 32 faces

#
# object Plane007
#

v  50.1188 26.2470 0.0000
v  50.1188 17.8147 -0.0000
v  59.6200 26.2470 0.0000
v  59.6200 17.8147 -0.0000
v  69.1211 26.2470 0.0000
v  69.1211 17.8147 -0.0000
v  78.6223 26.2470 0.0000
v  78.6223 17.8147 -0.0000
v  88.1235 26.2470 0.0000
v  88.1235 17.8147 -0.0000
v  50.1188 34.6793 0.0000
v  59.6200 34.6793 0.0000
v  69.1211 34.6793 0.0000
v  78.6223 34.6793 0.0000
v  88.1235 34.6793 0.0000
v  50.1188 43.1116 0.0000
v  59.6200 43.1116 0.0000
v  69.1211 43.1116 0.0000
v  78.6223 43.1116 0.0000
v  88.1235 43.1116 0.0000
v  50.1188 51.5439 0.0000
v  59.6200 51.5439 0.0000
v  69.1211 51.5439 0.0000
v  78.6223 51.5439 0.0000
v  88.1235 51.5439 0.0000
# 25 vertices

vn 0.0000 -0.0000 1.0000
# 1 vertex normals

vt 0.0000 0.2500 0.0000
vt 0.0000 0.0000 0.0000
vt 0.2500 0.2500 0.0000
vt 0.2500 0.0000 0.0000
vt 0.5000 0.2500 0.0000
vt 0.5000 0.0000 0.0000
vt 0.7500 0.2500 0.0000
vt 0.7500 0.0000 0.0000
vt 1.0000 0.2500 0.0000
vt 1.0000 0.0000 0.0000
vt 0.0000 0.5000 0.0000
vt 0.2500 0.5000 0.0000
vt 0.5000 0.5000 0.0000
vt 0.7500 0.5000 0.0000
vt 1.0000 0.5000 0.0000
vt 0.0000 0.7500 0.0000
vt 0.2500 0.7500 0.0000
vt 0.5000 0.7500 0.0000
vt 0.7500 0.7500 0.0000
vt 1.0000 0.7500 0.0000
vt 0.0000 1.0000 0.0000
vt 0.2500 1.0000 0.0000
vt 0.5000 1.0000 0.0000
vt 0.7500 1.0000 0.0000
vt 1.0000 1.0000 0.0000
# 25 texture coords

g Plane007
usemtl Yellow
f 159/155/13 160/156/13 161/157/13 
f 162/158/13 161/157/13 160/156/13 
f 161/157/13 162/158/13 163/159/13 
f 164/160/13 163/159/13 162/158/13 
f 163/159/13 164/160/13 165/161/13 
f 166/162/13 165/161/13 164/160/13 
f 165/161/13 166/162/13 167/163/13 
f 168/164/13 167/163/13 166/162/13 
f 169/165/13 159/155/13 170/166/13 
f 161/157/13 170/166/13 159/155/13 
f 170/166/13 161/157/13 171/167/13 
f 163/159/13 171/167/13 161/157/13 
f 171/167/13 163/159/13 172/168/13 
f 165/161/13 172/168/13 163/159/13 
f 172/168/13 165/161/13 173/169/13 
f 167/163/13 173/169/13 165/161/13 
f 174/170/13 169/165/13 175/171/13 
f 170/166/13 175/171/13 169/165/13 
f 175/171/13 170/166/13 176/172/13 
f 171/167/13 176/172/13 170/166/13 
f 176/172/13 171/167/13 177/173/13 
f 172/168/13 177/173/13 171/167/13 
f 177/173/13 172/168/13 178/174/13 
f 173/169/13 178/174/13 172/168/13 
f 179/175/13 174/170/13 180/176/13 
f 175/171/13 180/176/13 174/170/13 
f 180/176/13 175/171/13 181/177/13 
f 176/172/13 181/177/13 175/171/13 
f 181/177/13 176/172/13 182/178/13 
f 177/173/13 182/178/13 176/172/13 
f 182/178/13 177/173/13 183/179/13 
f 178/174/13 183/179/13 177/173/13 
# 32 faces

#
# object Plane008
#

v  51.0689 -14.9644 -0.0000
v  51.0689 -19.7150 -0.0000
v  55.9382 -14.9644 -0.0000
v  55.9382 -19.7150 -0.0000
v  60.8076 -14.9644 -0.0000
v  60.8076 -19.7150 -0.0000
v  65.6770 -14.9644 -0.0000
v  65.6770 -19.7150 -0.0000
v  70.5463 -14.9644 -0.0000
v  70.5463 -19.7150 -0.0000
v  51.0689 -10.2138 -0.0000
v  55.9382 -10.2138 -0.0000
v  60.8076 -10.2138 -0.0000
v  65.6770 -10.2138 -0.0000
v  70.5463 -10.2138 -0.0000
v  51.0689 -5.4632 0.0000
v  55.9382 -5.4632 0.0000
v  60.8076 -5.4632 0.0000
v  65.6770 -5.4632 0.0000
v  70.5463 -5.4632 0.0000
v  51.0689 -0.7126 0.0000
v  55.9382 -0.7126 0.0000
v  60.8076 -0.7126 0.0000
v  65.6770 -0.7126 0.0000
v  70.5463 -0.7126 0.0000
# 25 vertices

vn 0.0000 -0.0000 1.0000
# 1 vertex normals

vt 0.0000 0.2500 0.0000
vt 0.0000 0.0000 0.0000
vt 0.2500 0.2500 0.0000
vt 0.2500 0.0000 0.0000
vt 0.5000 0.2500 0.0000
vt 0.5000 0.0000 0.0000
vt 0.7500 0.2500 0.0000
vt 0.7500 0.0000 0.0000
vt 1.0000 0.2500 0.0000
vt 1.0000 0.0000 0.0000
vt 0.0000 0.5000 0.0000
vt 0.2500 0.5000 0.0000
vt 0.5000 0.5000 0.0000
vt 0.7500 0.5000 0.0000
vt 1.0000 0.5000 0.0000
vt 0.0000 0.7500 0.0000
vt 0.2500 0.7500 0.0000
vt 0.5000 0.7500 0.0000
vt 0.7500 0.7500 0.0000
vt 1.0000 0.7500 0.0000
vt 0.0000 1.0000 0.0000
vt 0.2500 1.0000 0.0000
vt 0.5000 1.0000 0.0000
vt 0.7500 1.0000 0.0000
vt 1.0000 1.0000 0.0000
# 25 texture coords

g Plane008
usemtl Red
f 184/180/14 185/181/14 186/182/14 
f 187/183/14 186/182/14 185/181/14 
f 186/182/14 187/183/14 188/184/14 
f 189/185/14 188/184/14 187/183/14 
f 188/184/14 189/185/14 190/186/14 
f 191/187/14 190/186/14 189/185/14 
f 190/186/14 191/187/14 192/188/14 
f 193/189/14 192/188/14 191/187/14 
f 194/190/14 184/180/14 195/191/14 
f 186/182/14 195/191/14 184/180/14 
f 195/191/14 186/182/14 196/192/14 
f 188/184/14 196/192/14 186/182/14 
f 196/192/14 188/184/14 197/193/14 
f 190/186/14 197/193/14 188/184/14 
f 197/193/14 190/186/14 198/194/14 
f 192/188/14 198/194/14 190/186/14 
f 199/195/14 194/190/14 200/196/14 
f 195/191/14 200/196/14 194/190/14 
f 200/196/14 195/191/14 201/197/14 
f 196/192/14 201/197/14 195/191/14 
f 201/197/14 196/192/14 202/198/14 
f 197/193/14 202/198/14 196/192/14 
f 202/198/14 197/193/14 203/199/14 
f 198/194/14 203/199/14 197/193/14 
f 204/200/14 199/195/14 205/201/14 
f 200/196/14 205/201/14 199/195/14 
f 205/201/14 200/196/14 206/202/14 
f 201/197/14 206/202/14 200/196/14 
f 206/202/14 201/197/14 207/203/14 
f 202/198/14 207/203/14 201/197/14 
f 207/203/14 202/198/14 208/204/14 
f 203/199/14 208/204/14 202/198/14 
# 32 faces

#
# object Plane009
#

v  16.3895 49.4062 0.0000
v  16.3895 46.3183 0.0000
v  17.9335 49.4062 0.0000
v  17.9335 46.3183 0.0000
v  19.4774 49.4062 0.0000
v  19.4774 46.3183 0.0000
v  21.0214 49.4062 0.0000
v  21.0214 46.3183 0.0000
v  22.5653 49.4062 0.0000
v  22.5653 46.3183 0.0000
v  16.3895 52.4941 0.0000
v  17.9335 52.4941 0.0000
v  19.4774 52.4941 0.0000
v  21.0214 52.4941 0.0000
v  22.5653 52.4941 0.0000
v  16.3895 55.5820 0.0000
v  17.9335 55.5820 0.0000
v  19.4774 55.5820 0.0000
v  21.0214 55.5820 0.0000
v  22.5653 55.5820 0.0000
v  16.3895 58.6698 0.0000
v  17.9335 58.6698 0.0000
v  19.4774 58.6698 0.0000
v  21.0214 58.6698 0.0000
v  22.5653 58.6698 0.0000
# 25 vertices

vn 0.0000 -0.0000 1.0000
# 1 vertex normals

vt 0.0000 0.2500 0.0000
vt 0.0000 0.0000 0.0000
vt 0.2500 0.2500 0.0000
vt 0.2500 0.0000 0.0000
vt 0.5000 0.2500 0.0000
vt 0.5000 0.0000 0.0000
vt 0.7500 0.2500 0.0000
vt 0.7500 0.0000 0.0000
vt 1.0000 0.2500 0.0000
vt 1.0000 0.0000 0.0000
vt 0.0000 0.5000 0.0000
vt 0.2500 0.5000 0.0000
vt 0.5000 0.5000 0.0000
vt 0.7500 0.5000 0.0000
vt 1.0000 0.5000 0.0000
vt 0.0000 0.7500 0.0000
vt 0.2500 0.7500 0.0000
vt 0.5000 0.7500 0.0000
vt 0.7500 0.7500 0.0000
vt 1.0000 0.7500 0.0000
vt 0.0000 1.0000 0.0000
vt 0.2500 1.0000 0.0000
vt 0.5000 1.0000 0.0000
vt 0.7500 1.0000 0.0000
vt 1.0000 1.0000 0.0000
# 25 texture coords

g Plane009
usemtl Red
f 209/205/15 210/206/15 211/207/15 
f 212/208/15 211/207/15 210/206/15 
f 211/207/15 212/208/15 213/209/15 
f 214/210/15 213/209/15 212/208/15 
f 213/209/15 214/210/15 215/211/15 
f 216/212/15 215/211/15 214/210/15 
f 215/211/15 216/212/15 217/213/15 
f 218/214/15 217/213/15 216/212/15 
f 219/215/15 209/205/15 220/216/15 
f 211/207/15 220/216/15 209/205/15 
f 220/216/15 211/207/15 221/217/15 
f 213/209/15 221/217/15 211/207/15 
f 221/217/15 213/209/15 222/218/15 
f 215/211/15 222/218/15 213/209/15 
f 222/218/15 215/211/15 223/219/15 
f 217/213/15 223/219/15 215/211/15 
f 224/220/15 219/215/15 225/221/15 
f 220/216/15 225/221/15 219/215/15 
f 225/221/15 220/216/15 226/222/15 
f 221/217/15 226/222/15 220/216/15 
f 226/222/15 221/217/15 227/223/15 
f 222/218/15 227/223/15 221/217/15 
f 227/223/15 222/218/15 228/224/15 
f 223/219/15 228/224/15 222/218/15 
f 229/225/15 224/220/15 230/226/15 
f 225/221/15 230/226/15 224/220/15 
f 230/226/15 225/221/15 231/227/15 
f 226/222/15 231/227/15 225/221/15 
f 231/227/15 226/222/15 232/228/15 
f 227/223/15 232/228/15 226/222/15 
f 232/228/15 227/223/15 233/229/15 
f 228/224/15 233/229/15 227/223/15 
# 32 faces

#
# object Box002
#

v  -69.5962 5.9382 -0.0000
v  -69.5962 20.6651 0.0000
v  -60.0950 20.6651 0.0000
v  -60.0950 5.9382 -0.0000
v  -69.5962 5.9382 15.6770
v  -60.0950 5.9382 15.6770
v  -60.0950 20.6651 15.6770
v  -69.5962 20.6651 15.6770
# 8 vertices

vn 0.0000 0.0000 -1.0000
vn 0.0000 -0.0000 1.0000
vn 0.0000 -1.0000 -0.0000
vn 1.0000 0.0000 -0.0000
vn 0.0000 1.0000 0.0000
vn -1.0000 0.0000 -0.0000
# 6 vertex normals

vt 1.0000 0.0000 0.0000
vt 1.0000 1.0000 0.0000
vt 0.0000 1.0000 0.0000
vt 0.0000 0.0000 0.0000
# 4 texture coords

g Box002
usemtl Yellow
f 234/230/16 235/231/16 236/232/16 
f 236/232/16 237/233/16 234/230/16 
f 238/233/17 239/230/17 240/231/17 
f 240/231/17 241/232/17 238/233/17 
f 234/233/18 237/230/18 239/231/18 
f 239/231/18 238/232/18 234/233/18 
f 237/233/19 236/230/19 240/231/19 
f 240/231/19 239/232/19 237/233/19 
f 236/233/20 235/230/20 241/231/20 
f 241/231/20 240/232/20 236/233/20 
f 235/233/21 234/230/21 238/231/21 
f 238/231/21 241/232/21 235/233/21 
# 12 faces

#
# object Box003
#

v  -20.6651 48.6936 0.0000
v  -20.6651 65.3207 0.0000
v  -2.1378 65.3207 0.0000
v  -2.1378 48.6936 0.0000
v  -20.6651 48.6936 38.0048
v  -2.1378 48.6936 38.0048
v  -2.1378 65.3207 38.0048
v  -20.6651 65.3207 38.0048
# 8 vertices

vn 0.0000 0.0000 -1.0000
vn 0.0000 -0.0000 1.0000
vn 0.0000 -1.0000 -0.0000
vn 1.0000 0.0000 -0.0000
vn 0.0000 1.0000 0.0000
vn -1.0000 0.0000 -0.0000
# 6 vertex normals

vt 1.0000 0.0000 0.0000
vt 1.0000 1.0000 0.0000
vt 0.0000 1.0000 0.0000
vt 0.0000 0.0000 0.0000
# 4 texture coords

g Box003
usemtl Red
f 242/234/22 243/235/22 244/236/22 
f 244/236/22 245/237/22 242/234/22 
f 246/237/23 247/234/23 248/235/23 
f 248/235/23 249/236/23 246/237/23 
f 242/237/24 245/234/24 247/235/24 
f 247/235/24 246/236/24 242/237/24 
f 245/237/25 244/234/25 248/235/25 
f 248/235/25 247/236/25 245/237/25 
f 244/237/26 243/234/26 249/235/26 
f 249/235/26 248/236/26 244/237/26 
f 243/237/27 242/234/27 246/235/27 
f 246/235/27 249/236/27 243/237/27 
# 12 faces

